<svg xmlns="http://www.w3.org/2000/svg" viewBox="0 0 512 512" width="512" height="512">
  <defs>
    <linearGradient id="plate" x1="0" y1="0" x2="1" y2="1">
      <stop offset="0" stop-color="#2a2216"/>
      <stop offset="0.45" stop-color="#12100c"/>
      <stop offset="1" stop-color="#080705"/>
    </linearGradient>
    <linearGradient id="rim" x1="0" y1="0" x2="1" y2="1">
      <stop offset="0" stop-color="#f3e2b0"/>
      <stop offset="0.4" stop-color="#d4b46a"/>
      <stop offset="1" stop-color="#8a6a2c"/>
    </linearGradient>
    <radialGradient id="glow" cx="62%" cy="36%" r="50%">
      <stop offset="0" stop-color="#d4b46a" stop-opacity="0.28"/>
      <stop offset="1" stop-color="#12100c" stop-opacity="0"/>
    </radialGradient>
    <linearGradient id="ivory" x1="0.12" y1="0" x2="0.9" y2="1">
      <stop offset="0" stop-color="#fff8ea"/>
      <stop offset="0.48" stop-color="#e6d5b4"/>
      <stop offset="1" stop-color="#a28d68"/>
    </linearGradient>
    <linearGradient id="ivoryHi" x1="0.2" y1="0" x2="0.8" y2="1">
      <stop offset="0" stop-color="#fffdf7"/>
      <stop offset="1" stop-color="#d8c49c"/>
    </linearGradient>
    <linearGradient id="ebony" x1="0.15" y1="0" x2="0.9" y2="1">
      <stop offset="0" stop-color="#6a5c4c"/>
      <stop offset="0.4" stop-color="#2a2420"/>
      <stop offset="1" stop-color="#12100e"/>
    </linearGradient>
    <linearGradient id="ebonyHi" x1="0.1" y1="0" x2="1" y2="1">
      <stop offset="0" stop-color="#c4b49a"/>
      <stop offset="1" stop-color="#4a4034"/>
    </linearGradient>
    <linearGradient id="sqL" x1="0" y1="0" x2="0.2" y2="1">
      <stop offset="0" stop-color="#ead8b0"/>
      <stop offset="1" stop-color="#c4a878"/>
    </linearGradient>
    <linearGradient id="sqD" x1="0" y1="0" x2="0" y2="1">
      <stop offset="0" stop-color="#3a2e24"/>
      <stop offset="1" stop-color="#1a1410"/>
    </linearGradient>
    <linearGradient id="wood" x1="0.2" y1="0" x2="0.2" y2="1">
      <stop offset="0" stop-color="#3c2c20"/>
      <stop offset="1" stop-color="#16100c"/>
    </linearGradient>
    <filter id="soft" x="-18%" y="-18%" width="136%" height="136%">
      <feGaussianBlur stdDeviation="1.4" result="b"/>
      <feMerge>
        <feMergeNode in="b"/>
        <feMergeNode in="SourceGraphic"/>
      </feMerge>
    </filter>
    <clipPath id="plateClip">
      <rect x="36" y="36" width="440" height="440" rx="112"/>
    </clipPath>
  </defs>

  <rect x="36" y="36" width="440" height="440" rx="112" fill="url(#plate)"/>
  <rect x="36" y="36" width="440" height="440" rx="112" fill="url(#glow)"/>
  <rect x="44" y="44" width="424" height="424" rx="104" fill="none" stroke="url(#rim)" stroke-width="10"/>
  <rect x="62" y="62" width="388" height="388" rx="92" fill="none" stroke="#d4b46a" stroke-opacity="0.18" stroke-width="2"/>

  <g clip-path="url(#plateClip)">
    <g transform="translate(256 430) scale(1.22) translate(-256 -400)">
      <polygon points="102,382 278,454 278,468 102,396" fill="url(#wood)"/>
      <polygon points="278,454 410,400 410,414 278,468" fill="#0e0b09"/>
      <polygon points="234,328 410,400 278,454 102,382" fill="#16120e"/>
      <polygon points="234,328 278,346 234,364 190,346" fill="url(#sqL)"/>
      <polygon points="278,346 322,364 278,382 234,364" fill="url(#sqD)"/>
      <polygon points="322,364 366,382 322,400 278,382" fill="#d4b46a" fill-opacity="0.78"/>
      <polygon points="366,382 410,400 366,418 322,400" fill="url(#sqD)"/>
      <polygon points="190,346 234,364 190,382 146,364" fill="url(#sqD)"/>
      <polygon points="234,364 278,382 234,400 190,382" fill="url(#sqL)"/>
      <polygon points="278,382 322,400 278,418 234,400" fill="url(#sqD)"/>
      <polygon points="322,400 366,418 322,436 278,418" fill="url(#sqL)"/>
      <polygon points="146,364 190,382 146,400 102,382" fill="url(#sqL)"/>
      <polygon points="190,382 234,400 190,418 146,400" fill="url(#sqD)"/>
      <polygon points="234,400 278,418 234,436 190,418" fill="url(#sqL)"/>
      <polygon points="278,418 322,436 278,454 234,436" fill="url(#sqD)"/>
      <polygon points="322,364 366,382 322,400 278,382" fill="none" stroke="#f3e2b0" stroke-width="2.4"/>
      <polyline points="102,382 278,454 410,400" fill="none" stroke="#d4b46a" stroke-opacity="0.5" stroke-width="2.2"/>
    </g>
  </g>

  <g transform="translate(348 428) scale(1.38)" filter="url(#soft)">
    <ellipse cx="0" cy="10" rx="50" ry="13" fill="#05070a" opacity="0.4"/>
    <ellipse cx="0" cy="3" rx="46" ry="12" fill="#8f7d5c"/>
    <rect x="-42" y="-14" width="84" height="18" rx="6" fill="url(#ivory)"/>
    <ellipse cx="0" cy="-14" rx="42" ry="11" fill="url(#ivoryHi)"/>
    <rect x="-30" y="-32" width="60" height="18" rx="5" fill="url(#ivory)"/>
    <ellipse cx="0" cy="-32" rx="30" ry="9" fill="url(#ivoryHi)"/>
    <polygon points="-15,-32 15,-32 11,-128 -11,-128" fill="url(#ivory)"/>
    <ellipse cx="0" cy="-126" rx="26" ry="8" fill="#b79d74"/>
    <rect x="-24" y="-142" width="48" height="16" rx="4" fill="url(#ivory)"/>
    <ellipse cx="0" cy="-142" rx="24" ry="8" fill="url(#ivoryHi)"/>
    <circle cx="0" cy="-170" r="28" fill="url(#ivory)"/>
    <ellipse cx="-8" cy="-180" rx="11" ry="8" fill="#fff" opacity="0.38"/>
    <rect x="-8" y="-234" width="16" height="44" rx="3" fill="url(#ivoryHi)"/>
    <rect x="-22" y="-220" width="44" height="13" rx="3" fill="url(#ivoryHi)"/>
    <rect x="-5" y="-234" width="6" height="12" rx="1.2" fill="#d4b46a" opacity="0.9"/>
  </g>

  <g transform="translate(172 440) scale(1.42)" filter="url(#soft)">
    <ellipse cx="6" cy="10" rx="44" ry="12" fill="#05070a" opacity="0.45"/>
    <path fill="url(#ebony)" stroke="#d4b46a" stroke-width="2.6" stroke-linejoin="round" d="
      M-34,8 L36,8 L32,-16 L8,-28
      L4,-54 L14,-94 L36,-104 L30,-116
      L58,-124 L82,-136 L86,-150 L72,-160
      L46,-164 L40,-188 L26,-178 L20,-196
      L8,-184 L16,-164 L2,-140 L-10,-112
      L-14,-70 L-10,-28 L-34,-14 Z"/>
    <path fill="url(#ebonyHi)" opacity="0.4" d="M8,-36 L20,-30 L28,-96 L12,-102 Z"/>
    <path fill="url(#ebonyHi)" opacity="0.34" d="M32,-120 L76,-138 L80,-148 L50,-156 L30,-146 Z"/>
    <circle cx="54" cy="-140" r="5.4" fill="#d4b46a"/>
    <circle cx="52.4" cy="-141.6" r="1.7" fill="#fff6d8"/>
  </g>
</svg>
