# Blender 5.2.1 LTS
# www.blender.org
mtllib board_base.mtl
o board_base
v -4.000000 -0.100000 4.000000
v -4.000000 0.000000 4.000000
v -4.000000 -0.100000 -4.000000
v -4.000000 0.000000 -4.000000
v 4.000000 -0.100000 4.000000
v 4.000000 0.000000 4.000000
v 4.000000 -0.100000 -4.000000
v 4.000000 0.000000 -4.000000
vn -1.0000 -0.0000 -0.0000
vn -0.0000 -0.0000 -1.0000
vn 1.0000 -0.0000 -0.0000
vn -0.0000 -0.0000 1.0000
vn -0.0000 -1.0000 -0.0000
vn -0.0000 1.0000 -0.0000
vt -0.500000 -0.100000
vt -0.500000 0.000000
vt 0.500000 0.000000
vt 0.500000 -0.100000
vt 1.500000 0.000000
vt 1.500000 -0.100000
vt 0.000000 1.000000
vt 1.000000 1.000000
vt 1.000000 0.000000
vt 0.000000 0.000000
s 1
usemtl body
f 1/1/1 2/2/1 4/3/1 3/4/1
f 3/4/2 4/3/2 8/5/2 7/6/2
f 7/6/3 8/5/3 6/3/3 5/4/3
f 5/4/4 6/3/4 2/2/4 1/1/4
f 3/7/5 7/8/5 5/9/5 1/10/5
f 8/8/6 4/7/6 2/10/6 6/9/6
