# Blender 5.2.1 LTS
# www.blender.org
mtllib square_tile.mtl
o square_tile
v -0.500000 0.000000 0.500000
v -0.500000 0.000000 -0.500000
v 0.500000 0.000000 0.500000
v 0.500000 0.000000 -0.500000
v -0.490000 0.070000 0.490000
v -0.500000 0.060000 0.500000
v -0.497071 0.067071 0.497071
v -0.490000 0.070000 -0.490000
v -0.500000 0.060000 -0.500000
v -0.497071 0.067071 -0.497071
v 0.490000 0.070000 0.490000
v 0.500000 0.060000 0.500000
v 0.497071 0.067071 0.497071
v 0.490000 0.070000 -0.490000
v 0.500000 0.060000 -0.500000
v 0.497071 0.067071 -0.497071
vn 1.0000 -0.0000 -0.0000
vn 0.9991 0.0435 -0.0000
vn -0.0030 1.0000 0.0030
vn -0.0030 1.0000 -0.0030
vn -0.1988 0.9597 -0.1988
vn -0.1988 0.9597 0.1988
vn -0.9239 0.3827 -0.0000
vn -0.9991 0.0435 -0.0000
vn 0.0030 1.0000 -0.0030
vn 0.1988 0.9597 -0.1988
vn -0.0000 0.3827 -0.9239
vn -0.0000 0.0435 -0.9991
vn 0.0030 1.0000 0.0030
vn 0.1988 0.9597 0.1988
vn 0.9239 0.3827 -0.0000
vn -0.0000 0.3827 0.9239
vn -0.0000 0.0435 0.9991
vn -0.0000 -0.0000 1.0000
vn -1.0000 -0.0000 -0.0000
vn -0.0000 -0.0000 -1.0000
vn -0.0000 -1.0000 -0.0000
vt 1.000000 0.000000
vt 1.000000 0.060000
vt 0.000000 0.060000
vt 0.000000 0.000000
vt 0.010000 0.010000
vt 0.010000 0.990000
vt 0.002929 0.997071
vt 0.002929 0.002929
vt 0.000000 1.000000
vt 0.990000 0.990000
vt 0.997071 0.997071
vt 1.000000 1.000000
vt 0.990000 0.010000
vt 0.997071 0.002929
s 1
usemtl body
f 4/1/1 15/2/2 12/3/2 3/4/1
f 5/5/3 8/6/4 10/7/5 7/8/6
f 7/8/7 10/7/7 9/9/8 6/4/8
f 8/6/4 14/10/9 16/11/10 10/7/5
f 10/7/11 16/11/11 15/12/12 9/9/12
f 14/10/9 11/13/13 13/14/14 16/11/10
f 16/11/15 13/14/15 12/1/2 15/12/2
f 11/13/13 5/5/3 7/8/6 13/14/14
f 13/14/16 7/8/16 6/4/17 12/1/17
f 3/1/18 12/2/17 6/3/17 1/4/18
f 1/4/19 6/3/8 9/2/8 2/1/19
f 14/10/9 8/6/4 5/5/3 11/13/13
f 2/4/20 9/3/12 15/2/12 4/1/20
f 2/4/21 4/1/21 3/1/21 1/4/21
